<svg width="22" height="23" viewBox="0 0 22 23" fill="none" xmlns="http://www.w3.org/2000/svg">
<path d="M12.0985 15.8223H9.89844V18.0223H12.0985V15.8223Z" fill="#3FC4FF"/>
<path d="M11.0015 4.82227C8.57053 4.82227 6.60156 6.79128 6.60156 9.22225H8.80158C8.80158 8.01223 9.79158 7.02223 11.0016 7.02223C12.2116 7.02223 13.2016 8.01228 13.2016 9.2223C13.2016 11.4223 9.90156 11.1473 9.90156 14.7223H12.1016C12.1016 12.2473 15.4016 11.9723 15.4016 9.2223C15.4016 6.79128 13.4326 4.82227 11.0015 4.82227Z" fill="#3FC4FF"/>
<path d="M11 0.421875C4.92798 0.421875 0 5.34985 0 11.4218C0 17.4938 4.92798 22.4218 11 22.4218C17.072 22.4218 21.9999 17.4938 21.9999 11.4218C21.9999 5.34985 17.072 0.421875 11 0.421875ZM11 20.2219C6.14898 20.2219 2.19996 16.2728 2.19996 11.4218C2.19996 6.57085 6.14898 2.62189 11 2.62189C15.851 2.62189 19.8 6.57085 19.8 11.4218C19.8 16.2728 15.851 20.2219 11 20.2219Z" fill="#3FC4FF"/>
</svg>
