<svg width="22" height="22" viewBox="0 0 22 22" fill="none" xmlns="http://www.w3.org/2000/svg">
<path d="M21.4907 13.893L19.1697 12.0725C19.2137 11.7205 19.2467 11.363 19.2467 11C19.2467 10.637 19.2137 10.2795 19.1697 9.92747L21.4962 8.10696C21.7052 7.94196 21.7657 7.64496 21.6282 7.40298L19.4282 3.59148C19.2907 3.35496 19.0047 3.25596 18.7572 3.35496L16.0182 4.46046C15.4517 4.02595 14.8302 3.65748 14.1592 3.37698L13.7467 0.462C13.6972 0.203517 13.4717 0 13.1967 0H8.79674C8.52176 0 8.29622 0.203517 8.25224 0.462L7.83974 3.37698C7.16876 3.65748 6.54723 4.02048 5.98076 4.46046L3.24176 3.35496C2.99426 3.26148 2.70825 3.35496 2.57078 3.59148L0.370713 7.40298C0.233196 7.63949 0.29373 7.93649 0.502713 8.10696L2.82369 9.92747C2.77971 10.2795 2.74671 10.637 2.74671 11C2.74671 11.363 2.77971 11.7205 2.82369 12.0725L0.502713 13.893C0.29373 14.058 0.233196 14.355 0.370713 14.597L2.57073 18.4085C2.70825 18.645 2.99421 18.744 3.24171 18.645L5.98071 17.5395C6.54723 17.974 7.16871 18.3425 7.83969 18.623L8.25219 21.5379C8.29617 21.7964 8.52171 21.9999 8.79669 21.9999H13.1967C13.4717 21.9999 13.6972 21.7964 13.7412 21.5379L14.1537 18.623C14.8247 18.3425 15.4462 17.9795 16.0126 17.5395L18.7516 18.645C18.9991 18.7385 19.2852 18.645 19.4226 18.4085L21.6226 14.597C21.7602 14.3605 21.6997 14.0635 21.4907 13.893ZM10.9967 14.85C8.86821 14.85 7.14669 13.1285 7.14669 11C7.14669 8.87148 8.86821 7.15001 10.9967 7.15001C13.1252 7.15001 14.8467 8.87153 14.8467 11C14.8467 13.1285 13.1252 14.85 10.9967 14.85Z" fill="#EFF0F4"/>
</svg>
