<svg width="30" height="30" viewBox="0 0 30 30" fill="none" xmlns="http://www.w3.org/2000/svg">
<circle cx="15" cy="15" r="15" fill="#2F2F2F"/>
<path d="M22.0711 7.92892C20.1823 6.04019 17.6711 5 15 5C12.3288 5 9.81766 6.04019 7.92892 7.92892C6.04019 9.81766 5 12.3288 5 15C5 17.6711 6.04019 20.1823 7.92892 22.0711C9.81766 23.9598 12.3288 25 15 25C17.6711 25 20.1823 23.9598 22.0711 22.0711C23.9598 20.1823 25 17.6711 25 15C25 12.3288 23.9598 9.81766 22.0711 7.92892V7.92892ZM10.0133 22.2807C10.4315 19.8726 12.5183 18.0963 15 18.0963C17.4818 18.0963 19.5685 19.8726 19.9867 22.2807C18.5669 23.2562 16.8491 23.8281 15 23.8281C13.1509 23.8281 11.4331 23.2562 10.0133 22.2807ZM11.8204 13.7448C11.8204 11.9914 13.2468 10.5652 15 10.5652C16.7532 10.5652 18.1796 11.9916 18.1796 13.7448C18.1796 15.498 16.7532 16.9244 15 16.9244C13.2468 16.9244 11.8204 15.498 11.8204 13.7448V13.7448ZM21.0017 21.4679C20.6863 20.3468 20.06 19.3297 19.182 18.5352C18.6433 18.0476 18.0302 17.663 17.3711 17.3918C18.5625 16.6147 19.3517 15.2702 19.3517 13.7448C19.3517 11.3454 17.3994 9.39331 15 9.39331C12.6006 9.39331 10.6485 11.3454 10.6485 13.7448C10.6485 15.2702 11.4377 16.6147 12.6289 17.3918C11.9699 17.663 11.3567 18.0475 10.818 18.535C9.94019 19.3295 9.31366 20.3467 8.99826 21.4677C7.26105 19.8544 6.17188 17.5522 6.17188 15C6.17188 10.1321 10.1321 6.17188 15 6.17188C19.8679 6.17188 23.8281 10.1321 23.8281 15C23.8281 17.5523 22.739 19.8546 21.0017 21.4679V21.4679Z" fill="#8F8F91"/>
</svg>
