<svg width="22" height="22" viewBox="0 0 22 22" fill="none" xmlns="http://www.w3.org/2000/svg">
<path d="M12.0985 15.4004H9.89844V17.6004H12.0985V15.4004Z" fill="#EFF0F4"/>
<path d="M11.0015 4.40039C8.57053 4.40039 6.60156 6.36941 6.60156 8.80037H8.80158C8.80158 7.59035 9.79158 6.60035 11.0016 6.60035C12.2116 6.60035 13.2016 7.59041 13.2016 8.80042C13.2016 11.0004 9.90156 10.7254 9.90156 14.3004H12.1016C12.1016 11.8254 15.4016 11.5505 15.4016 8.80042C15.4016 6.36941 13.4326 4.40039 11.0015 4.40039Z" fill="#EFF0F4"/>
<path d="M11 0C4.92798 0 0 4.92798 0 11C0 17.072 4.92798 21.9999 11 21.9999C17.072 21.9999 21.9999 17.072 21.9999 11C21.9999 4.92798 17.072 0 11 0ZM11 19.8C6.14898 19.8 2.19996 15.851 2.19996 11C2.19996 6.14898 6.14898 2.20002 11 2.20002C15.851 2.20002 19.8 6.14898 19.8 11C19.8 15.851 15.851 19.8 11 19.8Z" fill="#EFF0F4"/>
</svg>
