<svg width="30" height="30" viewBox="0 0 30 30" fill="none" xmlns="http://www.w3.org/2000/svg">
<circle cx="15" cy="15" r="15" fill="#3FC4FF"/>
<path d="M13.421 17.5265V12.4738C13.421 11.7759 13.9863 11.2107 14.6842 11.2107H20.3684V10.5791C20.3684 9.8812 19.8032 9.31592 19.1053 9.31592H10.2632C9.56525 9.31595 9 9.8812 9 10.5791V19.4212C9 20.1191 9.56525 20.6844 10.2632 20.6844H19.1053C19.8032 20.6844 20.3684 20.1191 20.3684 19.4212V18.7896H14.6842C13.9863 18.7896 13.421 18.2244 13.421 17.5265Z" fill="#EFF0F4"/>
<path d="M14.6836 12.4741V17.5268H20.9994V12.4741H14.6836ZM17.2099 15.9478C16.6857 15.9478 16.2625 15.5247 16.2625 15.0005C16.2625 14.4762 16.6857 14.0531 17.2099 14.0531C17.7341 14.0531 18.1573 14.4762 18.1573 15.0005C18.1573 15.5247 17.7341 15.9478 17.2099 15.9478Z" fill="#EFF0F4"/>
</svg>
