<svg width="22" height="22" viewBox="0 0 22 22" fill="none" xmlns="http://www.w3.org/2000/svg">
<path d="M21.1938 13.893L18.8728 12.0725C18.9168 11.7205 18.9498 11.363 18.9498 11C18.9498 10.637 18.9168 10.2795 18.8728 9.92747L21.1993 8.10696C21.4083 7.94196 21.4689 7.64496 21.3313 7.40298L19.1313 3.59148C18.9938 3.35496 18.7078 3.25596 18.4603 3.35496L15.7213 4.46046C15.1548 4.02595 14.5333 3.65748 13.8624 3.37698L13.4499 0.462C13.4003 0.203517 13.1748 0 12.8998 0H8.49987C8.22488 0 7.99935 0.203517 7.95537 0.462L7.54287 3.37698C6.87188 3.65748 6.25035 4.02048 5.68389 4.46046L2.94489 3.35496C2.69739 3.26148 2.41137 3.35496 2.27391 3.59148L0.0738379 7.40298C-0.0636792 7.63949 -0.00314482 7.93649 0.205838 8.10696L2.52682 9.92747C2.48284 10.2795 2.44984 10.637 2.44984 11C2.44984 11.363 2.48284 11.7205 2.52682 12.0725L0.205838 13.893C-0.00314482 14.058 -0.0636792 14.355 0.0738379 14.597L2.27385 18.4085C2.41137 18.645 2.69734 18.744 2.94484 18.645L5.68383 17.5395C6.25035 17.974 6.87183 18.3425 7.54281 18.623L7.95531 21.5379C7.9993 21.7964 8.22483 21.9999 8.49981 21.9999H12.8998C13.1748 21.9999 13.4003 21.7964 13.4443 21.5379L13.8568 18.623C14.5278 18.3425 15.1493 17.9795 15.7158 17.5395L18.4548 18.645C18.7023 18.7385 18.9883 18.645 19.1258 18.4085L21.3258 14.597C21.4633 14.3605 21.4028 14.0635 21.1938 13.893ZM10.6998 14.85C8.57133 14.85 6.84982 13.1285 6.84982 11C6.84982 8.87148 8.57133 7.15001 10.6998 7.15001C12.8283 7.15001 14.5498 8.87153 14.5498 11C14.5498 13.1285 12.8283 14.85 10.6998 14.85Z" fill="#3FC4FF"/>
</svg>
