<svg width="22" height="21" viewBox="0 0 22 21" fill="none" xmlns="http://www.w3.org/2000/svg">
<path d="M8.10525 15.0527V5.7895C8.10525 4.51004 9.14155 3.47369 10.4211 3.47369H20.8421V2.31581C20.8421 1.03635 19.8058 0 18.5263 0H2.31581C1.0363 5.42764e-05 0 1.03635 0 2.31581V18.5264C0 19.8058 1.0363 20.8422 2.31581 20.8422H18.5264C19.8058 20.8422 20.8421 19.8058 20.8421 18.5264V17.3685H10.4211C9.1416 17.3685 8.10525 16.3321 8.10525 15.0527Z" fill="#3FC4FF"/>
<path d="M10.4219 5.78906V15.0522H22.0008V5.78906H10.4219ZM15.0534 12.1575C14.0924 12.1575 13.3166 11.3818 13.3166 10.4207C13.3166 9.45961 14.0924 8.68384 15.0534 8.68384C16.0145 8.68384 16.7903 9.45961 16.7903 10.4207C16.7903 11.3818 16.0145 12.1575 15.0534 12.1575Z" fill="#3FC4FF"/>
</svg>
